<svg width="235" height="35" viewBox="0 0 235 35" fill="none" xmlns="http://www.w3.org/2000/svg">
<path d="M10.1271 22.4949C9.58458 22.5053 9.04629 22.3982 8.54924 22.1807C8.05219 21.9633 7.60819 21.6408 7.24781 21.2355C6.46608 20.3782 6.04928 19.2503 6.08586 18.0911C6.05443 16.9378 6.47083 15.8171 7.24781 14.9638C7.60984 14.5578 8.05571 14.2351 8.55464 14.018C9.05358 13.801 9.5937 13.6947 10.1377 13.7065C11.808 13.7065 13.0127 14.4892 13.7517 16.0546L18.6644 13.683C17.9434 12.2067 16.8363 10.9528 15.4605 10.0541C13.8784 9.02767 12.0281 8.49147 10.142 8.51282C7.32969 8.51282 4.97161 9.42859 3.06778 11.2601C1.16395 13.0917 0.207762 15.3687 0.199219 18.0911C0.199219 20.8078 1.15042 23.0848 3.05283 24.922C4.95524 26.7593 7.31331 27.6743 10.1271 27.6672C12.0133 27.6896 13.8639 27.1533 15.4455 26.126C16.8229 25.229 17.9304 23.9746 18.6494 22.4971L13.7368 20.1254C13.0006 21.7065 11.7974 22.4963 10.1271 22.4949Z" fill="black"/>
<path d="M22.213 24.9221C20.3106 23.092 19.3594 20.815 19.3594 18.0912C19.3594 15.3673 20.3106 13.0903 22.213 11.2602C24.1168 9.43008 26.4749 8.51501 29.2872 8.51501C32.0995 8.51501 34.4576 9.43008 36.3614 11.2602C38.2624 13.1103 39.2136 15.3872 39.215 18.0912C39.2165 20.7951 38.2653 23.0721 36.3614 24.9221C34.4576 26.7537 32.0995 27.6695 29.2872 27.6695C26.4749 27.6695 24.1168 26.7537 22.213 24.9221ZM26.3973 14.966C25.6241 15.8202 25.2109 16.9398 25.2439 18.0912C25.2077 19.2463 25.6211 20.3704 26.3973 21.227C26.7667 21.6238 27.214 21.9403 27.7112 22.1567C28.2084 22.3731 28.7449 22.4848 29.2872 22.4848C29.8295 22.4848 30.366 22.3731 30.8633 22.1567C31.3605 21.9403 31.8077 21.6238 32.1771 21.227C32.9508 20.369 33.3632 19.2456 33.3284 18.0912C33.3632 16.9367 32.9508 15.8134 32.1771 14.9553C31.8077 14.5585 31.3605 14.242 30.8633 14.0256C30.366 13.8092 29.8295 13.6975 29.2872 13.6975C28.7449 13.6975 28.2084 13.8092 27.7112 14.0256C27.214 14.242 26.7667 14.5585 26.3973 14.9553V14.966Z" fill="black"/>
<path d="M51.8993 8.53198C54.0737 8.53198 55.8287 9.2286 57.1644 10.6218C58.5 12.0151 59.1679 13.811 59.1679 16.0097V27.3235H53.4948V17.0771C53.5151 16.621 53.4394 16.1658 53.2728 15.7407C53.1061 15.3157 52.8521 14.9303 52.5272 14.6094C51.8751 13.9846 51.0207 13.6716 49.9641 13.6701C49.4961 13.6507 49.0288 13.7237 48.589 13.8848C48.1492 14.046 47.7455 14.2922 47.401 14.6094C47.0704 14.9263 46.8109 15.3098 46.6397 15.7345C46.4685 16.1592 46.3894 16.6153 46.4078 17.0728V27.3192H40.7305V8.88634H46.4035V11.0829C47.799 9.38229 49.6309 8.53198 51.8993 8.53198Z" fill="black"/>
<path d="M61.0312 8.87879V1.08936H66.7043V8.87879H71.1364V13.8398H66.7043V20.2182C66.7043 21.6413 67.4163 22.3529 68.8402 22.3529H71.1449V27.3053H68.8317C63.6314 27.3053 61.0312 24.8248 61.0312 19.8638V8.87879Z" fill="black"/>
<path d="M100.216 11.2795C98.3117 9.44794 95.9536 8.53216 93.1413 8.53216C91.4762 8.5046 89.8295 8.88343 88.344 9.63579C88.2415 9.68916 88.1304 9.74252 88.0385 9.80016L87.7801 9.95172L87.7395 9.97734C87.6413 10.0371 87.543 10.099 87.4469 10.1652L87.2162 10.3232C87.0026 10.4747 86.789 10.637 86.5904 10.8077C86.5028 10.8803 86.4174 10.9572 86.3319 11.034C86.2465 11.1108 86.1546 11.1962 86.0671 11.2795C85.9795 11.3627 85.8535 11.493 85.7552 11.5933C85.657 11.6936 85.5544 11.8067 85.4605 11.9178C85.4113 11.9711 85.3643 12.0266 85.3195 12.0821L85.1828 12.2486C85.1379 12.3041 85.0952 12.3618 85.0525 12.4194C85.0098 12.477 84.9649 12.5325 84.9243 12.5902C84.841 12.7012 84.7641 12.8143 84.6872 12.9296C84.5142 13.1935 84.3552 13.4664 84.2109 13.7472C84.1789 13.8112 84.1469 13.8731 84.117 13.9372C84.0871 14.0012 84.0849 14.0033 84.07 14.0353C83.4898 15.3079 83.198 16.6929 83.2156 18.0912C83.2156 20.8079 84.1668 23.0849 86.0692 24.9222C87.9716 26.7594 90.3297 27.6745 93.1434 27.6674C95.9557 27.6674 98.3138 26.7523 100.218 24.9222C102.121 23.092 103.073 20.8151 103.071 18.0912C103.07 15.3873 102.118 13.1167 100.216 11.2795ZM96.0312 21.2356C95.6621 21.633 95.215 21.95 94.7177 22.1668C94.2205 22.3835 93.6838 22.4954 93.1413 22.4954C92.5988 22.4954 92.0621 22.3835 91.5648 22.1668C91.0676 21.95 90.6204 21.633 90.2514 21.2356C89.4735 20.3767 89.0606 19.249 89.1001 18.0912C89.0635 16.9365 89.4762 15.8125 90.2514 14.9554C90.6208 14.5586 91.068 14.2421 91.5652 14.0257C92.0625 13.8093 92.599 13.6976 93.1413 13.6976C93.6836 13.6976 94.2201 13.8093 94.7173 14.0257C95.2145 14.2421 95.6618 14.5586 96.0312 14.9554C96.8048 15.8134 97.2173 16.9368 97.1825 18.0912C97.2211 19.2489 96.8083 20.3762 96.0312 21.2356Z" fill="black"/>
<path d="M110.304 27.3056H104.631V1.08325H110.304V27.3056Z" fill="black"/>
<path d="M129.145 8.87879V1.08936H134.818V8.87879H139.248V13.8398H134.818V20.2182C134.818 21.6413 135.53 22.3529 136.954 22.3529H139.248V27.3053H136.945C131.743 27.3053 129.143 24.8248 129.145 19.8638V8.87879Z" fill="black"/>
<path d="M152.388 8.52471C154.562 8.52471 156.317 9.22132 157.653 10.6146C158.988 12.0078 159.656 13.8037 159.656 16.0025V27.3162H153.987V17.0698C154.006 16.614 153.929 16.1593 153.761 15.735C153.594 15.3107 153.339 14.9262 153.013 14.6064C152.363 13.9816 151.508 13.6686 150.45 13.6671C149.982 13.6477 149.515 13.7207 149.075 13.8818C148.635 14.043 148.232 14.2892 147.887 14.6064C147.557 14.9233 147.297 15.3068 147.126 15.7315C146.955 16.1562 146.876 16.6123 146.894 17.0698V27.3162H141.219V1.08325H146.892V11.0756C148.287 9.37502 150.119 8.52471 152.388 8.52471Z" fill="black"/>
<path d="M184.639 24.9221C182.736 23.092 181.785 20.815 181.785 18.0912C181.785 15.3673 182.736 13.0903 184.639 11.2602C186.543 9.43008 188.901 8.51501 191.713 8.51501C194.525 8.51501 196.883 9.43008 198.787 11.2602C200.688 13.1103 201.639 15.3872 201.641 18.0912C201.642 20.7951 200.691 23.0721 198.787 24.9221C196.883 26.7537 194.525 27.6695 191.713 27.6695C188.901 27.6695 186.543 26.7537 184.639 24.9221ZM188.823 14.9639C188.05 15.8188 187.637 16.9393 187.672 18.0912C187.635 19.246 188.048 20.37 188.823 21.227C189.192 21.6238 189.64 21.9403 190.137 22.1567C190.634 22.3731 191.171 22.4848 191.713 22.4848C192.255 22.4848 192.792 22.3731 193.289 22.1567C193.786 21.9403 194.233 21.6238 194.603 21.227C195.377 20.369 195.789 19.2456 195.754 18.0912C195.789 16.9367 195.377 15.8134 194.603 14.9553C194.233 14.5585 193.786 14.242 193.289 14.0256C192.792 13.8092 192.255 13.6975 191.713 13.6975C191.171 13.6975 190.634 13.8092 190.137 14.0256C189.64 14.242 189.192 14.5585 188.823 14.9553V14.9639Z" fill="black"/>
<path d="M234.537 8.88635L224.716 34.4H218.973L221.384 28.1283L215.265 12.2399L213.973 8.88635H220.071L224.432 21.3251L228.794 8.88635H234.537Z" fill="black"/>
<path d="M180.36 19.8821C180.605 18.5758 180.592 17.2345 180.324 15.9329C180.006 14.4891 179.347 13.1424 178.402 12.0051C176.506 9.69111 173.963 8.53341 170.77 8.53198C168.003 8.53198 165.687 9.44776 163.822 11.2793C161.956 13.1109 161.022 15.3815 161.02 18.0911C161.02 20.8078 161.971 23.0848 163.873 24.922C165.776 26.7593 168.134 27.6743 170.947 27.6672C172.735 27.7009 174.499 27.2542 176.054 26.3736C177.512 25.5432 178.732 24.3542 179.6 22.9197L174.991 20.785C174.725 21.2222 174.386 21.6106 173.989 21.9335C173.116 22.676 172.006 23.0838 170.86 23.0841C169.861 23.0787 168.888 22.7694 168.07 22.1973C167.252 21.6253 166.628 20.8177 166.28 19.8821H180.356H180.36ZM170.86 13.0511C171.799 13.0563 172.717 13.3305 173.506 13.8412C174.294 14.352 174.919 15.0779 175.307 15.9329H166.417C166.805 15.0786 167.429 14.3531 168.217 13.8424C169.004 13.3317 169.921 13.0571 170.86 13.0511Z" fill="black"/>
<path d="M84.2704 8.53213C82.002 8.53213 80.1701 9.386 78.7746 11.0937V8.88649H73.1016V27.313H78.7746V17.0666C78.7565 16.6091 78.8357 16.153 79.0069 15.7284C79.1781 15.3038 79.4374 14.9203 79.7678 14.6032C80.1124 14.286 80.5161 14.0398 80.9559 13.8786C81.3957 13.7174 81.8629 13.6445 82.3309 13.6639H82.3694C82.9532 12.2946 83.8117 11.0595 84.8919 10.0349C85.369 9.57398 85.8842 9.15409 86.4319 8.77976C85.7252 8.60411 84.9986 8.52087 84.2704 8.53213Z" fill="black"/>
<path d="M212.129 8.84375C210.836 9.24339 209.695 10.0248 208.855 11.0852V8.88644H203.182V27.3129H208.855V17.0665C208.837 16.6091 208.916 16.153 209.087 15.7284C209.258 15.3037 209.518 14.9202 209.848 14.6031C210.192 14.2859 210.596 14.0397 211.036 13.8785C211.476 13.7174 211.943 13.6444 212.411 13.6638C213.005 13.6512 213.594 13.7723 214.135 14.0182L212.392 9.49482L212.129 8.84375Z" fill="black"/>
<path d="M116.41 23.7332C116.404 23.2457 116.497 22.7621 116.683 22.3115C116.869 21.8609 117.145 21.4528 117.493 21.1118C118.015 20.5936 118.677 20.2408 119.399 20.0978C120.12 19.9548 120.867 20.0279 121.547 20.3079C122.227 20.588 122.809 21.0625 123.219 21.6719C123.63 22.2813 123.852 22.9984 123.856 23.7332C123.859 24.2188 123.763 24.7 123.574 25.1476C123.385 25.5952 123.108 25.9999 122.758 26.3375C122.419 26.6917 122.012 26.9736 121.561 27.1661C121.11 27.3587 120.625 27.458 120.134 27.458C119.644 27.458 119.159 27.3587 118.708 27.1661C118.257 26.9736 117.849 26.6917 117.51 26.3375C117.161 26 116.883 25.5953 116.694 25.1478C116.505 24.7002 116.408 24.219 116.41 23.7332Z" fill="#FF0000"/>
<path d="M116.41 13.9135C116.404 13.426 116.497 12.9424 116.683 12.4918C116.869 12.0412 117.145 11.6331 117.493 11.2921C118.015 10.7739 118.677 10.4211 119.399 10.2781C120.12 10.1351 120.867 10.2082 121.547 10.4882C122.227 10.7683 122.809 11.2428 123.219 11.8522C123.63 12.4616 123.852 13.1787 123.856 13.9135C123.859 14.3991 123.763 14.8803 123.574 15.3279C123.385 15.7755 123.108 16.1802 122.758 16.5178C122.419 16.872 122.012 17.1539 121.561 17.3464C121.11 17.539 120.625 17.6383 120.134 17.6383C119.644 17.6383 119.159 17.539 118.708 17.3464C118.257 17.1539 117.849 16.872 117.51 16.5178C117.161 16.1803 116.883 15.7756 116.694 15.3281C116.505 14.8805 116.408 14.3993 116.41 13.9135Z" fill="#FF0000"/>
<path d="M116.41 4.52107C116.404 4.03364 116.497 3.55001 116.683 3.09943C116.869 2.64885 117.145 2.2407 117.493 1.89969C117.837 1.55136 118.247 1.27478 118.699 1.08602C119.151 0.897252 119.636 0.800049 120.126 0.800049C120.616 0.800049 121.101 0.897252 121.553 1.08602C122.004 1.27478 122.414 1.55136 122.758 1.89969C123.111 2.23844 123.39 2.64583 123.579 3.0967C123.768 3.54756 123.862 4.03234 123.856 4.52107C123.859 5.00676 123.763 5.48791 123.574 5.9355C123.385 6.38309 123.108 6.78785 122.758 7.12538C122.419 7.47957 122.012 7.76147 121.561 7.95406C121.11 8.14665 120.625 8.24594 120.134 8.24594C119.644 8.24594 119.159 8.14665 118.708 7.95406C118.257 7.76147 117.849 7.47957 117.51 7.12538C117.161 6.78795 116.883 6.38326 116.694 5.93568C116.505 5.4881 116.408 5.00689 116.41 4.52107Z" fill="#FF0000"/>
</svg>
